<svg xmlns="http://www.w3.org/2000/svg" width="128" height="30" viewBox="0 0 128 30" fill="none">
<path fill-rule="evenodd" clip-rule="evenodd" d="M108.993 6.28459C108.993 7.68676 109.009 8.26044 109.029 7.55929C109.049 6.85827 109.049 5.71103 109.029 5.00989C109.009 4.30886 108.993 4.88242 108.993 6.28459ZM5.15586 8.48574C3.0887 8.95803 1.40856 10.5748 0.727421 12.747C0.403722 13.7796 0.422776 16.1209 0.763287 17.1532C1.13373 18.2761 1.24402 18.5059 1.75949 19.2276C2.53601 20.3152 3.60529 21.0515 5.09982 21.5276C6.01196 21.8181 7.86538 21.8234 8.85464 21.5382C9.82585 21.2584 11.2773 20.5089 11.7953 20.0198C12.6411 19.2213 12.6209 17.9629 11.7491 17.1297C11.3836 16.7802 11.239 16.7194 10.7752 16.7194C10.3321 16.7194 10.1492 16.7887 9.7948 17.0911C9.55505 17.2957 9.03644 17.6245 8.64224 17.8218C6.86021 18.7142 4.77108 17.9175 4.22803 16.1386C3.85031 14.9013 4.04858 13.623 4.73891 12.8438C5.59142 11.8815 7.24029 11.6342 8.63047 12.2602C9.98198 12.8687 10.009 12.8727 10.6054 12.5566C11.3827 12.1444 11.6011 11.7679 11.5986 10.8451C11.5967 10.15 11.5661 10.0544 11.226 9.68325C10.1537 8.51277 7.40819 7.97111 5.15586 8.48574ZM20.007 8.44589C19.5054 8.63502 18.7647 9.20253 18.4936 9.60499C18.1921 10.0531 18.0825 10.0527 17.9892 9.60333C17.9452 9.39178 17.7511 9.11396 17.5127 8.92151C17.1614 8.63811 17.0091 8.59684 16.3142 8.59684C15.651 8.59684 15.4629 8.64285 15.187 8.8723C14.4273 9.50455 14.4604 9.21914 14.4596 15.1622L14.4588 20.5417L14.8817 20.9891C15.2877 21.4186 15.9047 21.6975 16.4519 21.6989C17.1359 21.7007 17.9703 21.0126 18.1526 20.2964C18.2178 20.0404 18.2635 18.6343 18.2579 17.0659C18.2485 14.4783 18.2645 14.244 18.4918 13.6364C18.7968 12.8209 18.985 12.5941 19.5968 12.3045C20.0161 12.1061 20.2266 12.0857 21.1226 12.1568C22.4648 12.2632 22.6835 12.1545 23.204 11.1213C23.4823 10.5688 23.4852 10.0746 23.2133 9.51107C22.9511 8.96763 22.6966 8.71815 22.1642 8.48277C21.6941 8.27503 20.5137 8.25487 20.007 8.44589ZM28.4797 8.54348C27.9734 8.68376 27.3306 8.98376 26.8326 9.3121C25.9756 9.87724 24.8415 11.0826 24.5325 11.7569C23.9544 13.0183 23.9299 13.1497 23.9299 14.9962C23.9299 16.5585 23.9609 16.8627 24.1803 17.4598C24.884 19.3742 26.3057 20.7735 28.2133 21.4293C28.9113 21.6691 29.3213 21.7306 30.2627 21.7364C31.6212 21.7445 32.4027 21.5461 33.4976 20.9149C35.4939 19.764 36.5403 18.0765 36.7123 15.7308C36.8785 13.4668 36.3346 11.7612 34.9878 10.3214C34.1465 9.4219 32.7791 8.62257 31.7326 8.41827C30.7927 8.23483 29.4003 8.28842 28.4797 8.54348ZM38.4953 8.46724C37.9966 8.69704 37.5867 9.27416 37.5041 9.86313C37.4323 10.3748 37.5348 10.9364 37.9978 12.5692C38.2878 13.5914 38.7621 15.3301 38.9522 16.0672C39.0363 16.3933 39.1887 16.9536 39.2911 17.3123C39.3934 17.671 39.5348 18.2134 39.6055 18.5178C39.6762 18.8222 39.7718 19.1113 39.818 19.1602C39.8642 19.209 39.9023 19.3335 39.9026 19.4368C39.9041 19.8861 40.1651 20.5526 40.4955 20.9507C41.2289 21.8343 42.3268 22.053 43.3422 21.5176C43.9914 21.1754 44.362 20.6606 44.6626 19.6838C44.773 19.3251 44.9009 18.9783 44.9469 18.913C44.9929 18.8478 45.3182 17.8517 45.6697 16.6992C46.0213 15.5469 46.3804 14.5064 46.4679 14.387C46.6155 14.1856 46.6374 14.1842 46.7726 14.3675C46.8526 14.4761 47.1109 15.1965 47.3465 15.9683C48.74 20.5325 48.7988 20.6865 49.3265 21.1563C50.3322 22.0515 51.4912 22.032 52.4889 21.1029C53.0425 20.5874 53.1374 20.3564 53.632 18.3202C53.7904 17.668 54.0441 16.6808 54.1959 16.1265C55.4593 11.5099 55.6311 10.8008 55.6383 10.174C55.6505 9.10589 55.0403 8.4191 53.9978 8.32767C52.8084 8.22333 52.3138 8.71957 52.0159 10.3162C51.9489 10.6749 51.8121 11.3953 51.7117 11.917C51.6113 12.4387 51.4889 13.1324 51.4397 13.4585C51.3026 14.3689 50.9169 16.2152 50.8344 16.3563C50.7016 16.5837 50.3542 16.4931 50.2944 16.2154C50.147 15.5312 48.6353 10.7616 48.4025 10.2459C47.9335 9.2074 46.7358 8.82036 45.6817 9.36653C45.0951 9.67044 44.8538 10.0929 44.3937 11.6206C44.1875 12.3053 43.8951 13.2391 43.7439 13.6957C43.5929 14.1522 43.3783 14.8517 43.2672 15.25C43.0112 16.1678 42.8515 16.4822 42.6413 16.4822C42.4039 16.4822 42.3268 16.2081 41.767 13.3772C40.8907 8.9457 40.8559 8.83471 40.2381 8.50815C39.7764 8.264 38.9769 8.24526 38.4953 8.46724ZM63.0561 8.49605C62.4343 8.69799 61.8195 9.10388 61.5742 9.47443C61.3455 9.81985 61.1705 9.7819 60.9737 9.34447C60.6199 8.55783 59.358 8.28344 58.4841 8.80305C57.6565 9.29514 57.674 9.17076 57.6342 14.8441C57.6106 18.1978 57.6393 20.0653 57.7191 20.3789C58.0239 21.5765 59.6706 22.0603 60.6926 21.2526C61.2444 20.8166 61.2507 20.7741 61.31 17.0751C61.3612 13.8771 61.3846 13.5466 61.5829 13.2213C62.1997 12.2093 62.7729 11.8577 63.8054 11.8577C64.7468 11.8577 65.4149 12.2794 65.8042 13.119C66.0641 13.6796 66.0722 13.7865 66.0959 16.9565C66.1093 18.75 66.1491 20.3867 66.1844 20.5938C66.2654 21.0684 66.8887 21.6615 67.4169 21.7664C68.1411 21.9101 68.7837 21.7263 69.2709 21.236L69.7163 20.7878V16.9346C69.7163 13.5103 69.6921 12.9813 69.4991 12.1827C69.3795 11.6884 69.1743 11.061 69.0428 10.7884C68.478 9.6172 67.3154 8.73759 65.928 8.43143C65.1067 8.25024 63.7168 8.28155 63.0561 8.49605ZM29.3332 12.0415C28.6802 12.2629 28.0106 12.939 27.6768 13.7142C27.474 14.1849 27.4437 14.4235 27.491 15.1722C27.5593 16.2559 27.832 16.8855 28.4917 17.4828C29.8241 18.6894 31.7439 18.3685 32.6698 16.7844C32.9884 16.2395 33.0088 16.1325 33.0088 15.0094C33.0088 13.9565 32.9769 13.7602 32.7418 13.3598C32.4251 12.821 32.0059 12.3828 31.5765 12.1416C31.1074 11.8781 29.9656 11.8271 29.3332 12.0415ZM71.8862 14.9407C71.8862 15.5603 71.9052 15.8138 71.9283 15.504C71.9514 15.1941 71.9514 14.6872 71.9283 14.3775C71.9052 14.0678 71.8862 14.3212 71.8862 14.9407ZM114.815 15.1186C114.815 15.7708 114.834 16.0224 114.857 15.6778C114.88 15.3333 114.879 14.7997 114.856 14.492C114.833 14.1844 114.815 14.4664 114.815 15.1186Z" fill="#FB851D"/>
<path fill-rule="evenodd" clip-rule="evenodd" d="M110.311 2.36668C110.107 2.4198 109.812 2.58937 109.656 2.74352C109.078 3.3147 109.058 3.44787 109.058 6.63439C109.058 8.26814 109.014 9.60474 108.959 9.60474C108.905 9.60474 108.795 9.52032 108.714 9.41715C108.452 9.08383 107.307 8.55 106.592 8.4281C105.428 8.22996 103.672 8.56802 102.741 9.16921C101.978 9.66154 101.108 10.6809 100.699 11.5601C100.144 12.752 99.9427 13.8911 100.016 15.415C100.114 17.4331 100.638 18.8477 101.712 19.9872C103.487 21.8726 106.967 22.2797 108.782 20.8145L109.135 20.5296L109.311 20.9181C109.66 21.6936 111.093 21.9803 111.871 21.4304C112.686 20.8546 112.65 21.3172 112.617 11.896C112.589 3.52518 112.587 3.45332 112.352 3.1213C111.9 2.4785 111.066 2.17032 110.311 2.36668ZM77.2885 8.42585C76.4139 8.53435 75.3741 8.90158 74.7042 9.33877C73.4927 10.1293 72.4674 11.5978 72.1172 13.0437C71.8327 14.2191 71.9387 16.3946 72.3334 17.4755C73.2655 20.0285 75.2814 21.5159 78.0122 21.6658C79.4197 21.7431 80.6029 21.4809 81.909 20.8026C83.3641 20.0466 83.872 19.2952 83.6758 18.1887C83.5629 17.5521 82.8877 16.8395 82.3214 16.7591C81.9193 16.7021 81.7852 16.7559 81.1086 17.2459C79.7298 18.2445 78.7315 18.4747 77.4814 18.0818C76.7839 17.8627 75.8623 17.0236 75.6279 16.3942C75.2054 15.2597 75.3034 13.9054 75.8678 13.0818C76.0386 12.8324 76.452 12.4684 76.7862 12.2727C77.3418 11.9476 77.4855 11.917 78.4588 11.917C79.4277 11.917 79.593 11.9517 80.2928 12.3024C81.1764 12.7451 81.6177 12.7821 82.1235 12.4558C83.0489 11.8589 83.2486 10.5129 82.5313 9.70779C81.6522 8.72123 79.3827 8.16628 77.2885 8.42585ZM90.4795 8.4319C88.5665 8.76913 86.6937 10.1423 85.8136 11.853C84.9961 13.442 84.9433 16.371 85.7041 17.9408C86.2742 19.1174 87.1417 20.0913 88.2023 20.7459C89.4081 21.49 89.9745 21.6403 91.5727 21.6403C93.172 21.6403 93.7372 21.4901 94.9467 20.7436C98.1766 18.7502 98.9765 13.8657 96.5798 10.7713C96.0128 10.0392 94.8601 9.16399 93.9802 8.79735C93.3781 8.54644 92.0389 8.29186 91.4391 8.31427C91.2352 8.32186 90.8033 8.37486 90.4795 8.4319ZM120.319 8.41767C119.475 8.54229 118.344 8.93668 117.705 9.32929C116.513 10.0615 115.431 11.6146 115.064 13.1198C114.812 14.1522 114.827 16.2036 115.094 17.2214C115.659 19.3749 117.371 20.9892 119.663 21.5287C120.325 21.6845 120.838 21.7156 121.933 21.6664C123.525 21.5949 124.623 21.3183 125.679 20.7228C126.439 20.2946 126.821 19.8572 127.006 19.2051C127.261 18.3024 126.552 17.3137 125.648 17.3127C125.405 17.3124 124.864 17.5236 124.207 17.8755L123.156 18.4387L121.795 18.4346C120.649 18.431 120.333 18.3879 119.795 18.1614C118.988 17.8217 118.533 17.3743 118.355 16.7456C118.105 15.8643 117.992 15.8893 122.213 15.8891C126.266 15.889 126.427 15.8645 126.898 15.1779C127.37 14.4906 127.361 13.0526 126.876 11.6917C126.685 11.1573 126.438 10.7926 125.828 10.1477C124.982 9.25257 124.413 8.89518 123.384 8.61178C122.548 8.38126 121.16 8.2934 120.319 8.41767ZM120.2 11.4317C119.151 11.7008 118.361 12.4016 118.361 13.0616V13.4035L121.079 13.3717L123.797 13.3399L123.83 12.9826C123.891 12.3237 123.01 11.619 121.828 11.382C121.115 11.239 120.927 11.2447 120.2 11.4317ZM90.5221 12.0318C89.0651 12.5813 88.3408 14.308 88.8239 16.0807C88.9745 16.6334 89.1345 16.9026 89.5928 17.374C91.0488 18.8717 93.2096 18.4659 94.1064 16.5264C94.3528 15.9938 94.4121 15.7008 94.4116 15.0177C94.4109 13.647 93.8137 12.5898 92.752 12.0796C92.211 11.8195 91.1455 11.7968 90.5221 12.0318ZM105.274 12.016C104.66 12.2514 104.116 12.8018 103.819 13.4862C103.572 14.0579 103.545 14.2546 103.586 15.1674C103.626 16.0477 103.684 16.297 103.975 16.8457C104.777 18.3542 106.652 18.731 107.959 17.6463C108.851 16.9055 109.262 15.2694 108.892 13.9253C108.655 13.0609 107.899 12.1927 107.208 11.9903C106.638 11.8233 105.745 11.8352 105.274 12.016Z" fill="#15151C"/>
</svg>